<svg xmlns="http://www.w3.org/2000/svg" fill="none" viewBox="0 0 24 24">
  <path fill="#C2C9D1" d="M6.80678 11.538c.03781.0911.09323.1739.16307.2435.06967.0699.15243.1253.24355.1631.09112.0378.1888.0573.28745.0573.09865 0 .19633-.0195.28745-.0573.09112-.0378.17388-.0932.24355-.1631l3.21905-3.22018v8.68908c0 .1989.079.3897.2196.5304.1407.1406.3314.2196.5304.2196.1989 0 .3896-.079.5303-.2196.1406-.1407.2197-.3315.2197-.5304V8.56134l3.219 3.22016c.1408.1409.3318.22.531.22.1991 0 .3901-.0791.531-.22.1408-.1408.2199-.3318.2199-.531 0-.1991-.0791-.3901-.2199-.531l-4.5-4.49995c-.0697-.06985-.1525-.12526-.2436-.16307-.0911-.03781-.1888-.05727-.2874-.05727-.0987 0-.1964.01946-.2875.05727-.0911.03781-.1739.09322-.2435.16307L6.96985 10.7195c-.06984.0697-.12526.1525-.16307.2436-.03781.0911-.05727.1888-.05727.2874 0 .0987.01946.1964.05727.2875Z"/>
</svg>
