<svg width="24" height="24" viewBox="0 0 24 24" fill="none" xmlns="http://www.w3.org/2000/svg">
<path d="M6.80678 11.538C6.84459 11.6291 6.90001 11.7119 6.96985 11.7815C7.03952 11.8514 7.12228 11.9068 7.2134 11.9446C7.30452 11.9824 7.4022 12.0019 7.50085 12.0019C7.5995 12.0019 7.69718 11.9824 7.7883 11.9446C7.87942 11.9068 7.96218 11.8514 8.03185 11.7815L11.2509 8.56132L11.2509 17.2504C11.2509 17.4493 11.3299 17.6401 11.4705 17.7808C11.6112 17.9214 11.8019 18.0004 12.0009 18.0004C12.1998 18.0004 12.3905 17.9214 12.5312 17.7808C12.6718 17.6401 12.7509 17.4493 12.7509 17.2504V8.56134L15.9699 11.7815C16.1107 11.9224 16.3017 12.0015 16.5009 12.0015C16.7 12.0015 16.891 11.9224 17.0319 11.7815C17.1727 11.6407 17.2518 11.4497 17.2518 11.2505C17.2518 11.0514 17.1727 10.8604 17.0319 10.7195L12.5319 6.21955C12.4622 6.1497 12.3794 6.09429 12.2883 6.05648C12.1972 6.01867 12.0995 5.99921 12.0009 5.99921C11.9022 5.99921 11.8045 6.01867 11.7134 6.05648C11.6223 6.09429 11.5395 6.1497 11.4699 6.21955L6.96985 10.7195C6.90001 10.7892 6.84459 10.872 6.80678 10.9631C6.76897 11.0542 6.74951 11.1519 6.74951 11.2505C6.74951 11.3492 6.76897 11.4469 6.80678 11.538Z" fill="#C2C9D1"/>
</svg>
